<svg width="500" height="300" viewBox="0 0 500 300" fill="none" xmlns="http://www.w3.org/2000/svg">
<rect width="500" height="300" fill="white"/>
<path d="M62 190V115H102V128H76.5V139.5H96.1667V152H76.5V176.5H102V190H62ZM134.039 191.667C129.095 191.667 124.567 190.472 120.456 188.083C116.345 185.694 113.067 182.472 110.622 178.417C108.234 174.361 107.039 169.889 107.039 165C107.039 160.056 108.234 155.583 110.622 151.583C113.067 147.528 116.345 144.306 120.456 141.917C124.567 139.528 129.095 138.333 134.039 138.333C137.484 138.333 140.734 138.917 143.789 140.083C146.9 141.194 149.65 142.861 152.039 145.083L148.289 159.833C146.9 157.556 145.039 155.583 142.706 153.917C140.428 152.194 137.734 151.333 134.622 151.333C132.011 151.333 129.678 151.944 127.622 153.167C125.567 154.389 123.956 156.028 122.789 158.083C121.622 160.139 121.039 162.444 121.039 165C121.039 167.5 121.622 169.806 122.789 171.917C123.956 173.972 125.567 175.611 127.622 176.833C129.678 178.056 132.011 178.667 134.622 178.667C137.734 178.667 140.428 177.833 142.706 176.167C145.039 174.444 146.9 172.444 148.289 170.167L152.039 184.917C149.65 187.139 146.9 188.833 143.789 190C140.734 191.111 137.484 191.667 134.039 191.667ZM184.078 191.667C179.134 191.667 174.606 190.472 170.495 188.083C166.384 185.694 163.106 182.472 160.661 178.417C158.273 174.361 157.078 169.889 157.078 165C157.078 160.056 158.273 155.583 160.661 151.583C163.106 147.528 166.384 144.306 170.495 141.917C174.606 139.528 179.134 138.333 184.078 138.333C189.078 138.333 193.606 139.528 197.661 141.917C201.773 144.306 205.023 147.528 207.411 151.583C209.856 155.583 211.078 160.056 211.078 165C211.078 169.889 209.856 174.361 207.411 178.417C205.023 182.472 201.773 185.694 197.661 188.083C193.606 190.472 189.078 191.667 184.078 191.667ZM184.078 178.667C186.578 178.667 188.828 178.056 190.828 176.833C192.884 175.611 194.495 173.972 195.661 171.917C196.884 169.806 197.495 167.5 197.495 165C197.495 162.444 196.884 160.139 195.661 158.083C194.495 156.028 192.884 154.389 190.828 153.167C188.828 151.944 186.578 151.333 184.078 151.333C181.578 151.333 179.3 151.944 177.245 153.167C175.245 154.389 173.634 156.028 172.411 158.083C171.245 160.139 170.661 162.444 170.661 165C170.661 167.5 171.245 169.806 172.411 171.917C173.634 173.972 175.245 175.611 177.245 176.833C179.3 178.056 181.578 178.667 184.078 178.667Z" fill="#212529"/>
<path d="M238.867 191.667C234.312 191.667 229.978 190.833 225.867 189.167C221.812 187.444 218.562 185.389 216.117 183L220.201 166.333C222.145 169.722 224.895 172.556 228.451 174.833C232.006 177.056 235.645 178.167 239.367 178.167C242.423 178.167 244.812 177.333 246.534 175.667C248.312 174 249.201 171.972 249.201 169.583C249.201 167.639 248.728 166.028 247.784 164.75C246.895 163.472 245.812 162.417 244.534 161.583C243.312 160.75 242.228 160.111 241.284 159.667L232.451 155.25C229.895 153.972 227.451 152.472 225.117 150.75C222.784 148.972 220.867 146.778 219.367 144.167C217.923 141.556 217.201 138.333 217.201 134.5C217.201 130.278 218.145 126.583 220.034 123.417C221.978 120.25 224.701 117.778 228.201 116C231.701 114.222 235.812 113.333 240.534 113.333C244.978 113.333 248.923 114.056 252.367 115.5C255.867 116.889 258.701 118.389 260.867 120L257.034 136.25C254.812 133.361 252.145 131.056 249.034 129.333C245.978 127.556 242.923 126.667 239.867 126.667C237.145 126.667 235.034 127.361 233.534 128.75C232.089 130.139 231.367 131.861 231.367 133.917C231.367 135.194 231.645 136.333 232.201 137.333C232.812 138.333 233.673 139.222 234.784 140C235.895 140.778 237.201 141.556 238.701 142.333L247.617 146.75C249.117 147.472 250.756 148.417 252.534 149.583C254.312 150.694 256.034 152.111 257.701 153.833C259.367 155.556 260.728 157.639 261.784 160.083C262.839 162.472 263.367 165.333 263.367 168.667C263.367 173 262.367 176.917 260.367 180.417C258.367 183.861 255.534 186.611 251.867 188.667C248.256 190.667 243.923 191.667 238.867 191.667ZM272.078 190V110H286.578V143.75C288.356 141.972 290.384 140.639 292.661 139.75C294.995 138.806 297.467 138.333 300.078 138.333C303.634 138.333 306.939 139.194 309.995 140.917C313.106 142.583 315.606 145.056 317.495 148.333C319.439 151.556 320.411 155.472 320.411 160.083V190H305.911V162C305.911 159.222 305.078 156.75 303.411 154.583C301.745 152.417 299.356 151.333 296.245 151.333C293.745 151.333 291.495 152.194 289.495 153.917C287.55 155.583 286.578 158.222 286.578 161.833V190H272.078ZM354.938 191.667C349.993 191.667 345.465 190.472 341.354 188.083C337.243 185.694 333.965 182.472 331.521 178.417C329.132 174.361 327.938 169.889 327.938 165C327.938 160.056 329.132 155.583 331.521 151.583C333.965 147.528 337.243 144.306 341.354 141.917C345.465 139.528 349.993 138.333 354.938 138.333C359.938 138.333 364.465 139.528 368.521 141.917C372.632 144.306 375.882 147.528 378.271 151.583C380.715 155.583 381.938 160.056 381.938 165C381.938 169.889 380.715 174.361 378.271 178.417C375.882 182.472 372.632 185.694 368.521 188.083C364.465 190.472 359.938 191.667 354.938 191.667ZM354.938 178.667C357.438 178.667 359.688 178.056 361.688 176.833C363.743 175.611 365.354 173.972 366.521 171.917C367.743 169.806 368.354 167.5 368.354 165C368.354 162.444 367.743 160.139 366.521 158.083C365.354 156.028 363.743 154.389 361.688 153.167C359.688 151.944 357.438 151.333 354.938 151.333C352.438 151.333 350.16 151.944 348.104 153.167C346.104 154.389 344.493 156.028 343.271 158.083C342.104 160.139 341.521 162.444 341.521 165C341.521 167.5 342.104 169.806 343.271 171.917C344.493 173.972 346.104 175.611 348.104 176.833C350.16 178.056 352.438 178.667 354.938 178.667ZM390.438 215V140H402.938V144.917C404.882 142.972 407.16 141.444 409.771 140.333C412.438 139.222 415.354 138.667 418.521 138.667C423.188 138.667 427.41 139.861 431.188 142.25C434.965 144.583 437.965 147.75 440.188 151.75C442.465 155.75 443.604 160.167 443.604 165C443.604 169.833 442.465 174.25 440.188 178.25C437.965 182.194 434.965 185.361 431.188 187.75C427.41 190.139 423.188 191.333 418.521 191.333C415.854 191.333 413.382 190.917 411.104 190.083C408.826 189.306 406.771 188.222 404.938 186.833V215H390.438ZM416.854 178.583C419.299 178.583 421.521 177.972 423.521 176.75C425.521 175.528 427.104 173.889 428.271 171.833C429.493 169.778 430.104 167.5 430.104 165C430.104 162.5 429.493 160.222 428.271 158.167C427.104 156.111 425.521 154.472 423.521 153.25C421.521 152.028 419.299 151.417 416.854 151.417C414.41 151.417 412.188 152.028 410.188 153.25C408.188 154.472 406.576 156.111 405.354 158.167C404.188 160.222 403.604 162.5 403.604 165C403.604 167.5 404.188 169.778 405.354 171.833C406.576 173.889 408.188 175.528 410.188 176.75C412.188 177.972 414.41 178.583 416.854 178.583Z" fill="#009975"/>
</svg>
