<svg width="382" height="106" viewBox="0 0 382 106" fill="none" xmlns="http://www.w3.org/2000/svg">
<g clip-path="url(#clip0_2_3)">
<rect width="382" height="106" fill="#212529"/>
<path d="M4.17233e-07 80V5H40V18H14.5V29.5H34.1667V42H14.5V66.5H40V80H4.17233e-07ZM72.0391 81.6667C67.0946 81.6667 62.5668 80.4722 58.4557 78.0833C54.3446 75.6944 51.0668 72.4722 48.6224 68.4167C46.2335 64.3611 45.0391 59.8889 45.0391 55C45.0391 50.0556 46.2335 45.5833 48.6224 41.5833C51.0668 37.5278 54.3446 34.3056 58.4557 31.9167C62.5668 29.5278 67.0946 28.3333 72.0391 28.3333C75.4835 28.3333 78.7335 28.9167 81.7891 30.0833C84.9002 31.1944 87.6502 32.8611 90.0391 35.0833L86.2891 49.8333C84.9002 47.5556 83.0391 45.5833 80.7057 43.9167C78.428 42.1944 75.7335 41.3333 72.6224 41.3333C70.0113 41.3333 67.678 41.9444 65.6224 43.1667C63.5668 44.3889 61.9557 46.0278 60.7891 48.0833C59.6224 50.1389 59.0391 52.4444 59.0391 55C59.0391 57.5 59.6224 59.8056 60.7891 61.9167C61.9557 63.9722 63.5668 65.6111 65.6224 66.8333C67.678 68.0556 70.0113 68.6667 72.6224 68.6667C75.7335 68.6667 78.428 67.8333 80.7057 66.1667C83.0391 64.4444 84.9002 62.4444 86.2891 60.1667L90.0391 74.9167C87.6502 77.1389 84.9002 78.8333 81.7891 80C78.7335 81.1111 75.4835 81.6667 72.0391 81.6667ZM122.078 81.6667C117.134 81.6667 112.606 80.4722 108.495 78.0833C104.384 75.6944 101.106 72.4722 98.6615 68.4167C96.2726 64.3611 95.0781 59.8889 95.0781 55C95.0781 50.0556 96.2726 45.5833 98.6615 41.5833C101.106 37.5278 104.384 34.3056 108.495 31.9167C112.606 29.5278 117.134 28.3333 122.078 28.3333C127.078 28.3333 131.606 29.5278 135.661 31.9167C139.773 34.3056 143.023 37.5278 145.411 41.5833C147.856 45.5833 149.078 50.0556 149.078 55C149.078 59.8889 147.856 64.3611 145.411 68.4167C143.023 72.4722 139.773 75.6944 135.661 78.0833C131.606 80.4722 127.078 81.6667 122.078 81.6667ZM122.078 68.6667C124.578 68.6667 126.828 68.0556 128.828 66.8333C130.884 65.6111 132.495 63.9722 133.661 61.9167C134.884 59.8056 135.495 57.5 135.495 55C135.495 52.4444 134.884 50.1389 133.661 48.0833C132.495 46.0278 130.884 44.3889 128.828 43.1667C126.828 41.9444 124.578 41.3333 122.078 41.3333C119.578 41.3333 117.3 41.9444 115.245 43.1667C113.245 44.3889 111.634 46.0278 110.411 48.0833C109.245 50.1389 108.661 52.4444 108.661 55C108.661 57.5 109.245 59.8056 110.411 61.9167C111.634 63.9722 113.245 65.6111 115.245 66.8333C117.3 68.0556 119.578 68.6667 122.078 68.6667Z" fill="#F4F5F7"/>
<path d="M176.867 81.6667C172.312 81.6667 167.978 80.8333 163.867 79.1667C159.812 77.4444 156.562 75.3889 154.117 73L158.201 56.3333C160.145 59.7222 162.895 62.5556 166.451 64.8333C170.006 67.0556 173.645 68.1667 177.367 68.1667C180.423 68.1667 182.812 67.3333 184.534 65.6667C186.312 64 187.201 61.9722 187.201 59.5833C187.201 57.6389 186.728 56.0278 185.784 54.75C184.895 53.4722 183.812 52.4167 182.534 51.5833C181.312 50.75 180.228 50.1111 179.284 49.6667L170.451 45.25C167.895 43.9722 165.451 42.4722 163.117 40.75C160.784 38.9722 158.867 36.7778 157.367 34.1667C155.923 31.5556 155.201 28.3333 155.201 24.5C155.201 20.2778 156.145 16.5833 158.034 13.4167C159.978 10.25 162.701 7.77778 166.201 6C169.701 4.22222 173.812 3.33333 178.534 3.33333C182.978 3.33333 186.923 4.05555 190.367 5.5C193.867 6.88889 196.701 8.38889 198.867 10L195.034 26.25C192.812 23.3611 190.145 21.0556 187.034 19.3333C183.978 17.5556 180.923 16.6667 177.867 16.6667C175.145 16.6667 173.034 17.3611 171.534 18.75C170.089 20.1389 169.367 21.8611 169.367 23.9167C169.367 25.1944 169.645 26.3333 170.201 27.3333C170.812 28.3333 171.673 29.2222 172.784 30C173.895 30.7778 175.201 31.5556 176.701 32.3333L185.617 36.75C187.117 37.4722 188.756 38.4167 190.534 39.5833C192.312 40.6944 194.034 42.1111 195.701 43.8333C197.367 45.5556 198.728 47.6389 199.784 50.0833C200.839 52.4722 201.367 55.3333 201.367 58.6667C201.367 63 200.367 66.9167 198.367 70.4167C196.367 73.8611 193.534 76.6111 189.867 78.6667C186.256 80.6667 181.923 81.6667 176.867 81.6667ZM210.078 80V-2.38419e-06H224.578V33.75C226.356 31.9722 228.384 30.6389 230.661 29.75C232.995 28.8056 235.467 28.3333 238.078 28.3333C241.634 28.3333 244.939 29.1944 247.995 30.9167C251.106 32.5833 253.606 35.0556 255.495 38.3333C257.439 41.5556 258.411 45.4722 258.411 50.0833V80H243.911V52C243.911 49.2222 243.078 46.75 241.411 44.5833C239.745 42.4167 237.356 41.3333 234.245 41.3333C231.745 41.3333 229.495 42.1944 227.495 43.9167C225.55 45.5833 224.578 48.2222 224.578 51.8333V80H210.078ZM292.938 81.6667C287.993 81.6667 283.465 80.4722 279.354 78.0833C275.243 75.6944 271.965 72.4722 269.521 68.4167C267.132 64.3611 265.938 59.8889 265.938 55C265.938 50.0556 267.132 45.5833 269.521 41.5833C271.965 37.5278 275.243 34.3056 279.354 31.9167C283.465 29.5278 287.993 28.3333 292.938 28.3333C297.938 28.3333 302.465 29.5278 306.521 31.9167C310.632 34.3056 313.882 37.5278 316.271 41.5833C318.715 45.5833 319.938 50.0556 319.938 55C319.938 59.8889 318.715 64.3611 316.271 68.4167C313.882 72.4722 310.632 75.6944 306.521 78.0833C302.465 80.4722 297.938 81.6667 292.938 81.6667ZM292.938 68.6667C295.438 68.6667 297.688 68.0556 299.688 66.8333C301.743 65.6111 303.354 63.9722 304.521 61.9167C305.743 59.8056 306.354 57.5 306.354 55C306.354 52.4444 305.743 50.1389 304.521 48.0833C303.354 46.0278 301.743 44.3889 299.688 43.1667C297.688 41.9444 295.438 41.3333 292.938 41.3333C290.438 41.3333 288.16 41.9444 286.104 43.1667C284.104 44.3889 282.493 46.0278 281.271 48.0833C280.104 50.1389 279.521 52.4444 279.521 55C279.521 57.5 280.104 59.8056 281.271 61.9167C282.493 63.9722 284.104 65.6111 286.104 66.8333C288.16 68.0556 290.438 68.6667 292.938 68.6667ZM328.438 105V30H340.938V34.9167C342.882 32.9722 345.16 31.4444 347.771 30.3333C350.438 29.2222 353.354 28.6667 356.521 28.6667C361.188 28.6667 365.41 29.8611 369.188 32.25C372.965 34.5833 375.965 37.75 378.188 41.75C380.465 45.75 381.604 50.1667 381.604 55C381.604 59.8333 380.465 64.25 378.188 68.25C375.965 72.1944 372.965 75.3611 369.188 77.75C365.41 80.1389 361.188 81.3333 356.521 81.3333C353.854 81.3333 351.382 80.9167 349.104 80.0833C346.826 79.3056 344.771 78.2222 342.938 76.8333V105H328.438ZM354.854 68.5833C357.299 68.5833 359.521 67.9722 361.521 66.75C363.521 65.5278 365.104 63.8889 366.271 61.8333C367.493 59.7778 368.104 57.5 368.104 55C368.104 52.5 367.493 50.2222 366.271 48.1667C365.104 46.1111 363.521 44.4722 361.521 43.25C359.521 42.0278 357.299 41.4167 354.854 41.4167C352.41 41.4167 350.188 42.0278 348.188 43.25C346.188 44.4722 344.576 46.1111 343.354 48.1667C342.188 50.2222 341.604 52.5 341.604 55C341.604 57.5 342.188 59.7778 343.354 61.8333C344.576 63.8889 346.188 65.5278 348.188 66.75C350.188 67.9722 352.41 68.5833 354.854 68.5833Z" fill="#009975"/>
</g>
<defs>
<clipPath id="clip0_2_3">
<rect width="382" height="106" fill="white"/>
</clipPath>
</defs>
</svg>
